<?xml version="1.0" encoding="UTF-8" standalone="no"?>
<!-- Generator: Adobe Illustrator 26.0.3, SVG Export Plug-In . SVG Version: 6.00 Build 0)  -->

<svg
   version="1.0"
   id="Layer_1"
   x="0px"
   y="0px"
   viewBox="0 0 180 74.339996"
   xml:space="preserve"
   sodipodi:docname="Durham_University.svg"
   width="180"
   height="74.339996"
   inkscape:version="1.3 (0e150ed6c4, 2023-07-21)"
   xmlns:inkscape="http://www.inkscape.org/namespaces/inkscape"
   xmlns:sodipodi="http://sodipodi.sourceforge.net/DTD/sodipodi-0.dtd"
   xmlns="http://www.w3.org/2000/svg"
   xmlns:svg="http://www.w3.org/2000/svg"><defs
   id="defs10" /><sodipodi:namedview
   id="namedview10"
   pagecolor="#ffffff"
   bordercolor="#666666"
   borderopacity="1.0"
   inkscape:showpageshadow="2"
   inkscape:pageopacity="0.0"
   inkscape:pagecheckerboard="0"
   inkscape:deskcolor="#d1d1d1"
   inkscape:zoom="1"
   inkscape:cx="90"
   inkscape:cy="37.5"
   inkscape:window-width="2560"
   inkscape:window-height="1377"
   inkscape:window-x="-8"
   inkscape:window-y="-8"
   inkscape:window-maximized="1"
   inkscape:current-layer="Layer_1" />&#10;<style
   type="text/css"
   id="style1">&#10;	.st0{fill:#002337;}&#10;	.st1{fill:#702567;}&#10;</style>&#10;&#10;&#10;&#10;&#10;&#10;&#10;&#10;&#10;&#10;<g
   id="g10"
   transform="matrix(0.9,0,0,0.9,-26.1,-42.3)"
   style="stroke-width:1.11111"><path
     class="st0"
     d="m 195.1,129.6 c 2,0 3.2,-1 4.3,-3.7 l 5.4,-13.4 h -2.1 l -4.2,10.8 -4.7,-10.8 h -2.1 l 5.9,12.9 c -0.8,1.8 -1.5,2.4 -2.6,2.4 -0.7,0 -1.4,-0.1 -2,-0.5 l -0.6,1.5 c 0.8,0.6 1.7,0.8 2.7,0.8 m -7.3,-3.9 c 0.8,0 1.6,-0.2 2.3,-0.6 v -1.6 c -0.6,0.3 -1.2,0.5 -1.9,0.4 -1,0.2 -2,-0.6 -2.2,-1.6 0,-0.2 0,-0.4 0,-0.5 v -7.6 h 4.1 v -1.7 H 186 v -3.9 h -1.9 v 3.9 h -1.8 v 1.7 h 1.8 v 7.8 c 0,2.7 1.6,3.7 3.7,3.7 m -10.3,-0.2 h 1.9 v -13 h -1.9 z m -0.1,-15.8 h 2.2 v -2.1 h -2.2 z m -7.8,16 c 2.6,0 4.6,-1.4 4.6,-3.9 v -0.1 c 0,-2.3 -2.1,-3.1 -4.2,-3.7 -1.7,-0.5 -3.3,-1 -3.3,-2.2 v -0.1 c 0,-1.1 1,-1.9 2.5,-1.9 1.4,0 2.7,0.5 3.8,1.2 l 0.9,-1.4 c -1.4,-0.9 -3,-1.4 -4.7,-1.4 -2.6,0 -4.4,1.5 -4.4,3.7 v 0 c 0,2.4 2.2,3.1 4.3,3.7 1.7,0.5 3.2,1 3.2,2.3 v 0 c 0,1.3 -1.1,2.1 -2.7,2.1 -1.6,-0.1 -3.2,-0.6 -4.5,-1.6 l -1,1.4 c 1.5,1.2 3.4,1.9 5.4,1.9 m -13.9,-0.4 h 1.9 v -5 c 0,-3.9 2.3,-5.9 5.1,-5.9 h 0.1 v -2.1 c -2.4,0 -4.5,1.4 -5.3,3.6 v -3.4 h -1.9 z m -13.2,-7.2 c 0.3,-2.5 2,-4.4 4.2,-4.4 2.6,0 3.9,2 4.1,4.4 z m 0,1.5 h 10.3 c 0,-0.2 0,-0.5 0,-0.7 0,-3.8 -2.2,-6.9 -6.1,-6.9 -3.6,0 -6.2,3 -6.2,6.8 -0.2,3.6 2.6,6.6 6.1,6.8 0.1,0 0.2,0 0.3,0 2.1,0.1 4,-0.8 5.4,-2.4 l -1.1,-0.9 c -1,1.2 -2.5,1.8 -4.1,1.8 -2.4,0 -4.4,-1.9 -4.6,-4.3 m -10.2,5.8 h 1.7 l 5.6,-13.1 h -2.1 l -4.4,10.8 -4.4,-10.8 h -2.1 z m -10.3,-0.1 h 1.9 v -13 h -1.9 z m -0.1,-15.8 h 2.2 v -2.1 h -2.2 z m -15,15.8 h 1.9 v -7.4 c -0.1,-2.1 1.5,-3.9 3.6,-4.1 0.1,0 0.2,0 0.3,0 2.3,0 3.6,1.5 3.6,3.9 v 7.6 h 1.9 v -8 c 0,-3.1 -1.8,-5.2 -5,-5.2 -1.8,0 -3.5,0.9 -4.4,2.5 v -2.4 h -1.9 z m -11.2,0.3 c 4.4,0 7.3,-2.7 7.3,-7.8 V 107.9 H 101 v 10.2 c 0,3.8 -2.1,5.8 -5.3,5.8 -3.2,0 -5.4,-2.1 -5.4,-5.9 v -10.1 h -2 v 10.2 c 0,5 3,7.7 7.3,7.7"
     id="path1"
     style="stroke-width:1.11111" /><path
     class="st0"
     d="m 205.4,100.4 v -1.6 h -0.1 c -0.7,0 -1.5,-0.1 -2.2,-0.4 -0.6,-0.3 -0.9,-1 -0.9,-2.1 v -8 c 0,-1 0.1,-2 0.4,-3 0.2,-0.9 0.7,-1.7 1.4,-2.3 0.7,-0.6 1.7,-0.9 2.6,-0.9 1.2,-0.1 2.4,0.4 3.1,1.4 0.7,1.2 1,2.5 0.9,3.8 v 13.1 h 6.6 v -1.6 h -0.1 c -0.7,0 -1.5,-0.2 -2.1,-0.5 -0.6,-0.3 -0.8,-1.1 -0.8,-2.3 v -8.3 c 0,-1 0.1,-1.9 0.4,-2.8 0.2,-0.8 0.7,-1.5 1.3,-2.1 0.7,-0.6 1.6,-0.8 2.5,-0.8 1.2,-0.1 2.4,0.4 3.1,1.4 0.7,1.2 1,2.5 0.9,3.8 v 13.1 h 6.6 v -1.6 h -0.1 c -0.7,0 -1.5,-0.1 -2.1,-0.5 -0.6,-0.3 -0.8,-1.1 -0.8,-2.3 v -9 c 0,-2.6 -0.6,-4.5 -1.6,-5.7 -1.2,-1.2 -2.8,-1.9 -4.5,-1.8 -1.1,0 -2.3,0.2 -3.3,0.7 -1.2,0.6 -2.1,1.6 -2.7,2.8 h -0.3 c -0.4,-1.1 -1.2,-2.1 -2.2,-2.7 -1,-0.5 -2.2,-0.8 -3.3,-0.8 -1.1,0 -2.2,0.2 -3.2,0.7 -1.1,0.6 -2,1.6 -2.6,2.8 h -0.2 l -0.5,-3.1 h -6 v 1.6 h 0.1 c 0.7,0 1.4,0.1 2.1,0.5 0.6,0.3 0.8,1 0.8,2.1 v 11.9 c 0,1.2 -0.3,1.9 -0.8,2.3 -0.7,0.3 -1.4,0.5 -2.1,0.5 h -0.5 v 1.6 z m -26.3,-5.5 c -0.1,-1.3 0.4,-2.5 1.2,-3.4 0.8,-0.8 2.3,-1.2 4.5,-1.3 l 2.4,-0.1 v 3.1 c 0.1,1.4 -0.4,2.8 -1.4,3.9 -1,1 -2.3,1.5 -3.7,1.4 -2,-0.1 -3,-1.2 -3,-3.6 m 4.8,5.4 c 0.7,-0.3 1.3,-0.7 1.8,-1.3 0.5,-0.6 1.1,-1.2 1.6,-1.9 h 0.3 l 0.6,3.3 h 5.1 v -1.6 h -0.1 c -0.7,0.1 -1.3,-0.1 -1.8,-0.6 -0.4,-0.6 -0.6,-1.4 -0.5,-2.2 v -9.8 c 0,-2.4 -0.6,-4.1 -1.7,-5.1 -1.5,-1.1 -3.4,-1.6 -5.2,-1.5 -1.2,0 -2.3,0.1 -3.4,0.4 -0.9,0.2 -1.8,0.6 -2.5,1.2 -0.6,0.5 -1,1.3 -0.9,2.1 -0.1,0.7 0.2,1.4 0.8,1.8 0.7,0.4 1.6,0.6 2.4,0.6 0,-0.7 0.1,-1.4 0.2,-2.1 0.1,-0.6 0.5,-1.1 1,-1.5 0.7,-0.4 1.4,-0.6 2.2,-0.5 0.8,-0.1 1.6,0.2 2.3,0.6 0.5,0.4 0.9,1 1,1.7 0.2,0.8 0.2,1.6 0.2,2.4 v 2.3 l -3.1,0.1 c -2.9,0.1 -5.1,0.6 -6.5,1.6 -1.5,1 -2.3,2.7 -2.1,4.5 -0.1,1.7 0.5,3.4 1.7,4.6 1.7,1.4 4.3,1.8 6.6,0.9 m -22.1,0.1 v -1.6 h -0.1 c -0.7,0 -1.5,-0.1 -2.2,-0.4 -0.6,-0.3 -0.9,-1 -0.9,-2.1 v -8 c -0.1,-1.6 0.3,-3.1 1.1,-4.5 0.8,-1.1 2.1,-1.8 3.5,-1.7 1.2,-0.1 2.5,0.4 3.2,1.4 0.7,1.2 1,2.5 0.9,3.8 v 13.1 h 6.6 v -1.6 h -0.1 c -0.7,0 -1.5,-0.1 -2.1,-0.5 -0.6,-0.3 -0.8,-1.1 -0.8,-2.3 v -9 c 0,-2.6 -0.6,-4.5 -1.7,-5.7 -1.4,-1.3 -3.2,-1.9 -5,-1.8 -2.4,-0.1 -4.6,1.3 -5.6,3.5 h -0.2 c 0,-0.7 0.1,-1.3 0.1,-1.8 0,-0.5 0,-1 0,-1.4 v -8.3 h -7 v 1.6 h 0.3 c 0.8,0 1.5,0.1 2.2,0.5 0.6,0.3 0.9,1 0.9,2.1 v 20.4 c 0,1.2 -0.3,1.9 -0.9,2.3 -0.7,0.3 -1.4,0.5 -2.2,0.5 h -0.3 v 1.6 z m -15.8,0 v -1.6 h -1.1 c -0.7,0 -1.5,-0.1 -2.2,-0.4 -0.6,-0.3 -0.9,-1 -0.9,-2.1 v -6 c 0,-0.8 0.1,-1.7 0.2,-2.5 0.1,-0.9 0.3,-1.8 0.6,-2.7 0.2,-0.8 0.6,-1.5 1.1,-2.1 0.4,-0.5 1.1,-0.8 1.8,-0.8 0.6,-0.1 1.2,0.2 1.6,0.7 0.4,0.7 0.5,1.5 0.5,2.3 1,0.1 1.9,-0.2 2.7,-0.8 0.5,-0.5 0.8,-1.2 0.8,-1.9 0,-0.8 -0.4,-1.5 -1,-2 -0.9,-0.5 -2,-0.8 -3.1,-0.7 -0.9,0 -1.8,0.1 -2.6,0.6 -0.6,0.4 -1.1,0.9 -1.5,1.5 -0.4,0.7 -0.8,1.4 -1.1,2.1 h -0.2 l -0.7,-3.8 H 135 v 1.6 h 0.1 c 0.8,0 1.5,0.1 2.2,0.5 0.6,0.3 0.9,1 0.9,2.1 v 11.9 c 0,1.2 -0.3,1.9 -0.9,2.3 -0.7,0.3 -1.4,0.5 -2.2,0.5 H 135 v 1.6 z m -21.8,-0.3 c 1.2,-0.6 2.2,-1.6 2.7,-2.8 h 0.2 l 0.5,3.1 h 6 v -1.6 h -0.1 c -0.7,0 -1.5,-0.1 -2.2,-0.4 -0.6,-0.3 -0.9,-1 -0.9,-2.1 V 80.1 h -6.8 v 1.6 h 0.1 c 0.8,0 1.5,0.1 2.2,0.5 0.6,0.3 0.9,1.1 0.9,2.3 v 7.8 c 0.1,1.6 -0.3,3.1 -1.1,4.5 -0.8,1.2 -2.2,1.8 -3.7,1.7 -1.2,0.1 -2.4,-0.4 -3.2,-1.4 -0.6,-1.2 -0.9,-2.5 -0.8,-3.8 V 80.1 h -6.8 v 1.6 h 0.1 c 0.8,0 1.5,0.1 2.2,0.5 0.6,0.3 0.9,1 0.9,2.1 v 9.1 c 0,2.6 0.5,4.5 1.6,5.7 1.2,1.2 2.9,1.9 4.6,1.8 1.3,-0.1 2.5,-0.3 3.6,-0.8 M 92.4,75.2 h 3.3 c 2.6,-0.2 5.1,0.9 6.7,3 1.5,2 2.3,4.9 2.3,8.6 0,3.7 -0.8,6.6 -2.3,8.7 -1.6,2.1 -4.2,3.2 -6.8,3 H 92.3 V 75.2 Z m 4.2,25.2 c 2.4,0.1 4.8,-0.5 6.9,-1.7 1.8,-1.1 3.3,-2.8 4.1,-4.7 1,-2.3 1.5,-4.7 1.4,-7.2 0,-4.3 -1.1,-7.6 -3.3,-10 -2.2,-2.4 -5.2,-3.5 -9.1,-3.5 H 85 v 1.6 h 0.5 c 0.8,0 1.5,0.1 2.2,0.5 0.6,0.3 0.9,1 0.9,2.1 v 18.6 c 0,1.2 -0.3,1.9 -0.9,2.3 -0.7,0.3 -1.4,0.5 -2.2,0.5 H 85 v 1.6 z"
     id="path2"
     style="stroke-width:1.11111" /><path
     class="st1"
     d="m 58.7,71.7 c 7.4,0 14.8,-0.5 22.1,-1.3 C 81.2,64.2 80.9,58 79.9,51.8 79.7,50.3 78.5,49.1 77,48.8 70.8,47.6 64.6,47 58.2,47 57.4,53.7 57.1,60.4 57.1,67 v 3.1 0 l 0.8,0.1 c 0.4,0.1 0.7,0.3 0.7,0.7 0,0 0.1,0.8 0.1,0.8 z"
     id="path3"
     style="stroke-width:1.11111" /><path
     class="st1"
     d="m 53,77.5 -0.8,-0.1 c -0.4,0 -0.6,-0.3 -0.7,-0.7 0,-0.3 -0.1,-0.8 -0.1,-0.8 v 0 c -7.2,-0.1 -14.4,0.3 -21.5,1.2 1.2,6.8 9,22.1 21.4,28.7 C 52,100.7 53,88.3 53,80.4 Z"
     id="path4"
     style="stroke-width:1.11111" /><path
     class="st1"
     d="m 58.6,75.9 v 0 C 65.8,75.8 73,76.2 80.1,77.1 78.9,83.9 71.2,99.2 58.7,105.8 58.1,100.7 57,88.4 57,80.4 v -2.9 0 l 0.7,-0.1 c 0.4,-0.1 0.6,-0.3 0.7,-0.7 0.1,-0.3 0.2,-0.8 0.2,-0.8 z"
     id="path5"
     style="stroke-width:1.11111" /><path
     class="st1"
     d="m 41.5,61.6 c 0,0.1 0,0.1 0,0.2 0.1,0 0.2,0 0.2,-0.1 0.1,-0.1 0.1,-0.1 0.2,-0.2 -0.1,0.1 -0.3,0.1 -0.4,0.1"
     id="path6"
     style="stroke-width:1.11111" /><path
     class="st1"
     d="m 43.8,64.7 c 0.2,-0.1 0.4,0 0.4,0.2 0,0.2 -0.3,0.3 -0.4,0.4 l -0.1,0.1 c 0,-0.1 0,-0.2 0,-0.3 0,-0.1 0,-0.1 -0.1,-0.1 -0.1,0 -0.6,0.4 -0.3,1.1 0,-0.2 0,-0.3 0.1,-0.4 0,-0.1 0.1,-0.1 0.1,-0.2 0.1,0.1 0.1,0.2 0.1,0.4 0,0.3 -0.2,0.3 -0.1,0.5 l 0.1,0.2 c 0,-0.1 0,-0.2 0,-0.2 0,-0.1 0.1,-0.2 0.1,-0.2 0,-0.1 0,-0.1 0,-0.2 0.1,0.1 0.2,0.2 0.1,0.4 0,0.1 0,0.3 -0.1,0.4 0,0.1 -0.1,0.2 -0.1,0.2 -0.1,0.5 -0.3,0.7 -0.6,0.7 -0.2,0 -0.3,0 -0.5,-0.1 0,0.6 -0.7,0.6 -0.7,0.9 0,0.1 0.1,0.2 0.1,0.3 0.1,0.1 0.4,0.2 0.5,0.3 -0.1,0 -0.3,0.1 -0.4,0.2 0.2,0.1 0.2,0.3 0.3,0.4 -0.2,-0.1 -0.3,0 -0.4,0 -0.1,0 0,0.2 -0.1,0.3 0,-0.1 -0.1,-0.2 -0.2,-0.2 -0.1,0 -0.3,0.1 -0.3,0.2 0,0.2 -0.1,0.2 -0.2,0.2 -0.1,0 -0.1,0.2 -0.1,0.3 -0.1,-0.1 -0.1,-0.2 -0.1,-0.3 -0.1,0 -0.1,-0.1 -0.1,-0.2 v 0 c 0,0 -0.1,0 -0.2,0 -0.1,0 -0.1,0.1 -0.1,0.2 0,-0.2 0,-0.3 0.1,-0.4 0,-0.1 0,-0.2 0.1,-0.2 0,0 0,0 0,-0.1 -0.1,0 -0.1,0 -0.2,-0.1 -0.1,0 -0.2,0 -0.2,0.1 0,-0.1 0.1,-0.2 0.2,-0.3 0.1,-0.2 0.3,-0.2 0.4,-0.1 0.1,0.1 0.2,0.1 0.3,0.1 0.1,0 0.2,-0.1 0.3,-0.2 l 0.1,-0.1 c 0,-0.1 0.1,-0.2 -0.1,-0.3 -0.1,-0.2 -0.4,-0.4 -0.4,-0.6 0,-0.3 0.1,-0.5 0.3,-0.7 h -0.1 c -0.2,0 -0.2,-0.1 -0.4,-0.1 -0.2,0 -0.3,0.1 -0.3,0.3 0,0.1 0,0.2 0.1,0.3 0.1,0.1 0.1,0.2 0.1,0.3 -0.1,-0.1 -0.3,-0.1 -0.5,0 0,0.1 -0.1,0.2 -0.2,0.3 -0.1,-0.2 -0.2,-0.3 -0.4,-0.2 0,0 -0.1,0 -0.1,0.1 0,0.1 0,0.2 -0.2,0.2 -0.2,0 -0.1,0 -0.1,0 -0.1,0.1 -0.1,0.1 -0.1,0.2 0,-0.1 0,-0.2 0.1,-0.3 0,-0.1 0,-0.2 0.1,-0.2 v 0 c -0.1,0.1 -0.2,0.1 -0.3,0 -0.1,0 -0.1,0 -0.2,0.2 0,-0.1 0,-0.3 0.1,-0.3 0,-0.1 0.1,-0.2 0.3,-0.2 0.2,0 0,0 0,0 v 0 c 0,0 -0.2,0 -0.2,-0.2 -0.1,0 -0.2,0 -0.2,0.1 -0.1,-0.2 0,-0.4 0.2,-0.4 0,0 0,0 0,0 0.1,0 0.1,-0.1 0.2,-0.1 0.1,0 0.2,0 0.2,0.1 0.1,0.2 0.3,0.3 0.5,0.2 0.1,0 0.2,-0.1 0.2,-0.2 0,-0.1 -0.2,-0.5 -0.2,-0.7 0.1,-0.2 0.3,-0.4 0.5,-0.5 0.6,0 0.8,0.3 0.9,0.3 0.1,0 0.2,0 0.2,-0.1 -0.3,-0.4 -0.5,-0.3 -0.8,-0.6 -0.1,-0.1 -0.2,-0.2 -0.2,-0.4 -0.2,0 -0.3,0.3 -0.4,0.4 0,-0.1 -0.1,-0.1 -0.2,-0.1 -0.1,0 -0.2,0.2 -0.3,0.3 0,-0.2 -0.1,-0.3 -0.4,-0.3 -0.2,0 -0.2,0 -0.3,0.1 -0.1,0.1 -0.2,0.2 -0.3,0.2 -0.1,0 -0.1,0.1 -0.2,0.2 -0.1,-0.2 0,-0.3 0,-0.3 0,-0.1 0,-0.2 0.1,-0.2 v 0 c -0.1,0 -0.2,0 -0.3,-0.1 -0.1,-0.1 -0.1,0 -0.2,0.1 0,-0.1 0.1,-0.2 0.2,-0.3 0,-0.1 0.2,-0.1 0.2,-0.1 0.1,0 0,0 0,0 -0.1,0 -0.1,-0.1 -0.1,-0.2 -0.1,-0.1 -0.2,0 -0.2,0 0.1,-0.1 0.3,-0.2 0.4,-0.1 0.1,0.1 0.3,0 0.3,0.1 0,0.1 0.2,0.2 0.5,0.2 0.5,0 1.2,-0.4 1.2,-0.8 -0.1,0 -0.1,0 -0.2,0 -0.3,0 -0.6,0.3 -0.8,0.3 0.1,-0.2 0,-0.3 0.1,-0.4 -0.2,0 -0.4,0.1 -0.5,0.1 0.1,-0.1 0.1,-0.2 0.2,-0.3 0,-0.1 0,-0.2 -0.3,-0.2 -0.1,0 -0.1,0 -0.2,0 -0.1,0 -0.3,0 -0.3,-0.2 -0.1,0 -0.2,0 -0.3,0.1 0,-0.1 0.2,-0.2 0.3,-0.2 0,-0.1 0.1,-0.1 0.2,-0.1 v 0 c 0,0 -0.2,0 -0.2,-0.2 0,-0.2 -0.1,-0.1 -0.3,0 0.2,-0.1 0.2,-0.1 0.3,-0.1 0.1,0 0.3,-0.1 0.3,0 v 0 c 0,-0.1 0,-0.2 0,-0.2 0,-0.1 0,-0.1 -0.2,-0.2 0.1,0 0.3,0 0.4,0.1 0.1,0 0.2,0.1 0.2,0.2 0,0.2 -0.2,0.3 0.2,0.5 0.2,0.1 0.3,0.1 0.5,0.2 0,0.1 0.2,0.1 0.3,0.1 -0.1,-0.1 0,-0.2 -0.2,-0.3 0.1,0 0.3,0 0.4,0.1 0,-0.2 0,-0.2 -0.1,-0.3 h 0.3 c 0.5,0.1 0.5,-0.2 0.6,-0.5 -0.2,0 -0.5,0.1 -0.7,0.2 0,-0.1 0,-0.2 0,-0.2 0,-0.1 0.1,-0.2 0.1,-0.2 0,0 0,0 0,0 H 41 c 0.1,0 0.2,-0.1 0.2,-0.3 -0.1,-0.2 -0.1,-0.2 -0.2,-0.2 l -0.2,0.1 c -0.1,0 -0.1,0.1 -0.1,0.2 0,0.1 0,-0.1 -0.1,-0.2 l -0.1,-0.1 v 0 c 0,-0.1 0,-0.2 0.1,-0.2 0,0 0,0 0.1,0 L 41,62 c 0.1,0 0.2,-0.1 0.2,-0.2 0,-0.1 0,-0.1 0.2,-0.1 h 0.3 c 0.2,0 0.5,-0.2 0.4,-0.4 0.1,0 0.2,0.3 0.2,0.4 0.1,0 0.3,0 0.4,-0.1 0,0.2 -0.1,0.3 -0.2,0.4 0.1,0 0.3,0 0.4,-0.1 -0.1,0.2 -0.1,0.3 -0.3,0.4 0.2,0.1 0.4,0.2 0.4,0.4 -0.2,-0.1 -0.2,0 -0.4,0 0.2,0.3 0.4,0.6 0.5,1 -0.1,-0.1 -0.2,-0.1 -0.3,-0.2 0.1,0.3 -0.1,0.6 0,0.7 -0.1,0 -0.2,-0.1 -0.2,-0.2 -0.1,0.2 -0.1,0.4 -0.1,0.6 -0.1,-0.1 -0.2,-0.1 -0.2,-0.2 -0.1,0.2 -0.2,0.4 -0.2,0.7 0,0.4 0.1,0.9 0.4,1.3 0.1,0.2 0.2,0.4 0.2,0.7 0.1,0.1 0.3,0.2 0.5,0.1 0.2,0 0.4,-0.2 0.3,-0.4 0,-0.4 -0.5,-0.6 -0.5,-1.3 0,-0.4 0.3,-0.7 0.3,-1 0,-0.3 -0.2,-0.1 -0.4,-0.2 0.2,0 0.4,-0.3 0.5,-0.3 0.1,0 0.2,0.1 0.2,0.2 0,0.1 0,0.2 -0.1,0.3 0.2,-0.1 0.3,-0.3 0.3,-0.6 0,-0.2 -0.3,-0.4 -0.2,-0.8 0,0 0,0 0,-0.1 0.1,0.4 0.7,0.5 0.7,0.9 0,0.4 -0.4,0.6 -0.5,0.8 m -3.6,-2.6 c 0,0.2 0,0.4 0.2,0.4 0.2,0 0.5,-0.1 0.7,-0.2 v 0.1 c -0.3,0.2 -0.6,0.4 -0.9,0.4 -0.2,0 -0.3,-0.1 -0.3,-0.3 0,-0.2 0.1,-0.2 0.3,-0.4 m 1.1,-3.5 -12.2,11.8 c 7.4,0.9 14.8,1.4 22.3,1.3 v 0 c 0,0 0,-0.4 0.1,-0.8 0,-0.4 0.3,-0.7 0.7,-0.7 l 0.7,-0.1 z"
     id="path7"
     style="stroke-width:1.11111" /><path
     class="st1"
     d="m 47.2,49.5 c 0,0.1 0,0.2 0,0.2 0.1,0 0.2,0 0.3,-0.1 0.1,-0.1 0.1,-0.1 0.2,-0.2 -0.1,0 -0.3,0 -0.5,0.1"
     id="path8"
     style="stroke-width:1.11111" /><path
     class="st1"
     d="m 35.8,50.3 c 0,0.1 0,0.2 0,0.2 0.1,0 0.2,0 0.2,-0.1 0.1,0 0.1,-0.1 0.2,-0.2 -0.1,0.1 -0.3,0.1 -0.4,0.1"
     id="path9"
     style="stroke-width:1.11111" /><path
     class="st1"
     d="m 49.7,52.8 c 0.2,-0.1 0.5,0 0.5,0.2 0,0.2 -0.3,0.3 -0.4,0.4 0,0 -0.1,0.1 -0.1,0.1 0,-0.2 0,-0.3 0,-0.4 0,-0.1 -0.1,-0.1 -0.2,-0.1 -0.4,0.2 -0.6,0.6 -0.4,1 0,0 0,0.1 0.1,0.1 0,-0.2 0,-0.3 0.1,-0.4 0.1,-0.1 0.1,-0.1 0.1,-0.2 0.1,0.1 0.1,0.2 0.1,0.4 0,0.3 -0.2,0.4 -0.1,0.6 0,0.1 0,0.1 0.1,0.2 0,-0.1 0,-0.2 0,-0.3 0,-0.1 0.1,-0.2 0.1,-0.3 0,-0.1 0,-0.1 0,-0.2 0.1,0.1 0.2,0.3 0.2,0.4 0,0.1 0,0.3 -0.1,0.4 0,0.1 -0.1,0.2 -0.1,0.2 -0.1,0.5 -0.3,0.7 -0.6,0.7 -0.2,0 -0.3,0 -0.5,-0.1 0,0.6 -0.7,0.6 -0.7,1 0,0.1 0.1,0.2 0.2,0.3 0.1,0.1 0.4,0.2 0.5,0.3 -0.2,0 -0.3,0.1 -0.4,0.2 0.3,0.1 0.3,0.3 0.3,0.5 -0.3,-0.1 -0.4,0 -0.4,0 0,0 0,0.2 -0.1,0.3 0,-0.1 -0.1,-0.2 -0.2,-0.2 -0.1,0 -0.3,0.1 -0.3,0.3 0,0.1 -0.1,0.2 -0.2,0.3 0,0 0,0 0,0 -0.1,0.1 -0.1,0.2 -0.1,0.3 C 47,58.7 47,58.6 47,58.5 47,58.4 46.9,58.4 46.9,58.3 v 0 c -0.1,0.1 -0.1,0.1 -0.3,0.1 -0.1,0.1 -0.1,0.1 -0.2,0.2 0,-0.3 0,-0.3 0.1,-0.4 0,-0.1 0,-0.2 0.1,-0.2 0,0 0,0 0,-0.1 -0.1,0 -0.1,0 -0.2,-0.1 -0.1,0 -0.2,0.1 -0.2,0.2 0,-0.1 0.1,-0.3 0.2,-0.3 0.1,-0.2 0.3,-0.2 0.4,-0.1 0.1,0.1 0.2,0.1 0.4,0.1 0.1,0 0.2,-0.1 0.3,-0.2 0,0 0,-0.1 0.1,-0.1 0,-0.1 0.1,-0.2 -0.1,-0.4 -0.2,-0.2 -0.4,-0.4 -0.4,-0.7 0,-0.3 0.1,-0.5 0.3,-0.7 H 47 c -0.2,0 -0.2,-0.1 -0.5,-0.1 -0.2,0 -0.3,0.2 -0.3,0.3 0,0.1 0,0.2 0.1,0.3 0.1,0.1 0.1,0.2 0.1,0.3 -0.1,-0.1 -0.3,-0.1 -0.5,0 0,0.1 -0.1,0.2 -0.2,0.3 -0.1,-0.2 -0.2,-0.3 -0.4,-0.2 -0.1,0 -0.1,0 -0.1,0.1 0,0.1 -0.1,0.2 -0.2,0.2 0,0 -0.1,0 -0.1,0 -0.1,0.1 -0.1,0.1 -0.2,0.2 0,-0.1 0,-0.2 0.1,-0.3 0,-0.1 0,-0.2 0.1,-0.2 0.1,0 0,0 0,0 -0.1,0.1 -0.3,0.1 -0.4,0 0,0 0,0 0,0 -0.1,0 -0.1,0.1 -0.2,0.2 0,-0.1 0,-0.3 0.1,-0.3 0,-0.1 0.1,-0.2 0.3,-0.2 0.2,0 0,0 0,0 v 0 c 0,0 -0.2,0 -0.2,-0.2 -0.1,0 -0.2,0 -0.2,0.1 0,-0.1 0.2,-0.2 0.3,-0.2 0,-0.1 0.1,-0.1 0.2,-0.1 0.1,0 0.2,0 0.2,0.1 0.1,0.2 0.4,0.3 0.6,0.2 0.1,0 0.2,-0.1 0.2,-0.2 0,0 0,0 0,0 0,-0.1 -0.2,-0.5 -0.2,-0.7 0.1,-0.3 0.3,-0.5 0.5,-0.5 0.7,0 0.8,0.3 1,0.3 0.2,0 0.2,0 0.3,-0.1 -0.3,-0.4 -0.5,-0.4 -0.8,-0.6 -0.1,-0.1 -0.2,-0.3 -0.2,-0.4 -0.2,0 -0.4,0.3 -0.5,0.4 0,-0.1 -0.1,-0.1 -0.2,-0.1 -0.1,0 -0.3,0.2 -0.3,0.4 0,-0.2 -0.1,-0.4 -0.4,-0.4 -0.1,0 -0.2,0 -0.3,0.1 -0.1,0.1 -0.2,0.2 -0.3,0.2 -0.1,0 -0.1,0.1 -0.2,0.3 -0.1,-0.2 0,-0.3 0,-0.4 0,-0.1 0,-0.2 0.1,-0.3 v 0 c -0.1,0 -0.2,0 -0.3,0 -0.1,0 -0.1,0 -0.2,0.1 0,-0.1 0.1,-0.3 0.2,-0.3 0.1,-0.1 0.2,-0.1 0.3,-0.1 v 0 c -0.1,0 -0.1,-0.1 -0.1,-0.2 -0.1,-0.1 -0.2,0 -0.2,0 0.1,-0.1 0.3,-0.2 0.4,-0.1 0.1,0.1 0.3,0 0.3,0.2 0,0.2 0.2,0.2 0.5,0.2 0.5,0 1.3,-0.5 1.3,-0.8 -0.1,0 -0.2,0 -0.2,0 -0.3,0 -0.6,0.3 -0.9,0.3 0.1,-0.2 0,-0.3 0.1,-0.4 -0.2,0 -0.4,0.1 -0.6,0.1 0.1,-0.1 0.2,-0.2 0.2,-0.3 0,-0.1 0,-0.2 -0.3,-0.2 -0.1,0 -0.1,0 -0.2,0 -0.1,0 -0.3,0 -0.3,-0.2 -0.1,0 -0.2,0 -0.3,0.1 0,-0.1 0.2,-0.2 0.3,-0.2 0,-0.1 0.1,-0.1 0.2,-0.1 0,0 0,0 0,-0.1 0,-0.1 -0.2,0 -0.2,-0.2 0,-0.2 -0.1,-0.1 -0.3,0 0.2,-0.2 0.3,-0.1 0.3,-0.1 0.1,-0.1 0.2,-0.1 0.3,0 0,0 0,0 0.1,0 0,-0.1 0,-0.2 0,-0.3 0,-0.1 -0.1,-0.2 -0.2,-0.2 0.1,0 0.3,0 0.4,0.1 0.1,0 0.2,0.1 0.2,0.2 0,0.2 -0.2,0.3 0.2,0.6 0.2,0.1 0.3,0.2 0.5,0.2 0.2,0.1 0.3,0.1 0.5,0.1 -0.1,-0.1 0,-0.2 -0.2,-0.3 0.1,0 0.3,0 0.4,0.1 0,-0.2 0,-0.2 -0.1,-0.3 0.1,0 0.2,0 0.3,0 0.5,0 0.5,-0.2 0.6,-0.5 -0.3,0 -0.5,0.1 -0.7,0.2 0,-0.1 0,-0.2 0,-0.2 0,-0.1 0.1,-0.2 0.2,-0.2 0,0 0,0 0,0 H 47 c 0.1,0 0.3,-0.1 0.2,-0.4 0,-0.1 -0.1,-0.2 -0.2,-0.2 l -0.2,0.1 c -0.1,0 -0.1,0.1 -0.1,0.2 l -0.1,-0.2 c 0,0 0,-0.1 -0.1,-0.1 v 0 c 0,-0.1 0,-0.2 0.1,-0.2 0,0 0,0 0,0 l 0.3,-0.1 c 0.1,0 0.2,-0.1 0.3,-0.2 0,-0.1 0.1,-0.1 0.2,-0.1 h 0.3 c 0.2,0 0.5,-0.2 0.4,-0.4 0.2,0 0.2,0.3 0.2,0.4 0.1,0 0.3,0 0.4,-0.1 0,0.2 -0.1,0.3 -0.2,0.5 0.1,0 0.3,0 0.4,-0.1 -0.1,0.2 -0.1,0.3 -0.3,0.5 0.2,0.1 0.4,0.2 0.5,0.5 -0.2,-0.1 -0.3,0 -0.4,0 0.2,0.3 0.4,0.6 0.5,1 -0.1,-0.1 -0.2,-0.1 -0.4,-0.2 0.1,0.3 -0.1,0.6 0,0.7 -0.1,-0.1 -0.2,-0.1 -0.3,-0.2 -0.1,0.2 -0.1,0.4 -0.1,0.7 -0.1,-0.2 -0.2,-0.4 -0.3,-0.7 -0.2,0.2 -0.2,0.4 -0.2,0.7 0,0.5 0.2,0.9 0.4,1.3 0.1,0.2 0.2,0.5 0.2,0.7 0,0.2 0.2,0.4 0.4,0.4 0.2,0 0.4,-0.2 0.4,-0.4 0,0 0,0 0,0 0,-0.4 -0.5,-0.7 -0.5,-1.4 0,-0.5 0.4,-0.7 0.4,-1 0,-0.3 -0.2,-0.1 -0.4,-0.2 0.2,0 0.4,-0.3 0.6,-0.3 0.1,0 0.2,0.1 0.2,0.2 0,0 0,0 0,0 0,0.1 0,0.2 -0.1,0.3 0.2,-0.2 0.3,-0.4 0.3,-0.6 0,-0.2 -0.3,-0.4 -0.2,-0.8 0,0 0,0 0,-0.1 0.1,0.5 0.7,0.6 0.7,1 0,0.4 -0.4,0 -0.6,0.3 M 46,50 c -0.1,0.2 0,0.5 0.2,0.5 0.2,0 0.5,-0.1 0.7,-0.2 l 0.1,0.1 c -0.3,0.2 -0.6,0.4 -1,0.5 -0.1,0 -0.3,-0.1 -0.3,-0.2 0,0 0,0 0,-0.1 0,-0.3 0.1,-0.4 0.3,-0.6 m -7.8,3.5 c 0.2,-0.1 0.4,0 0.4,0.2 0,0.2 -0.3,0.3 -0.4,0.4 0,0 -0.1,0.1 -0.1,0.1 0,-0.1 0,-0.3 0,-0.4 0,-0.1 -0.1,-0.2 -0.2,-0.2 -0.4,0.2 -0.6,0.6 -0.4,1 0,0 0,0.1 0.1,0.1 0,-0.2 0,-0.4 0.1,-0.5 0,-0.1 0.1,-0.1 0.1,-0.2 0.1,0.1 0.1,0.2 0.1,0.4 0,0.3 -0.2,0.3 -0.1,0.6 l 0.1,0.2 c 0,-0.1 0,-0.2 0,-0.3 0,-0.1 0.1,-0.2 0.1,-0.3 0,-0.1 0,-0.1 0,-0.2 0.1,0.1 0.2,0.3 0.2,0.4 0,0.1 0,0.3 -0.1,0.4 0,0.1 -0.1,0.1 -0.1,0.2 -0.1,0.5 -0.3,0.7 -0.6,0.7 -0.2,0 -0.3,0 -0.5,-0.1 0,0.6 -0.7,0.6 -0.7,1 0,0.1 0.1,0.2 0.1,0.3 0.1,0.1 0.4,0.2 0.5,0.3 -0.1,0 -0.3,0.1 -0.4,0.2 0.2,0.1 0.2,0.3 0.3,0.4 -0.2,-0.1 -0.4,0 -0.4,0 -0.1,0 0,0.2 -0.1,0.3 0,-0.1 -0.1,-0.2 -0.2,-0.2 -0.1,0 -0.3,0.2 -0.3,0.2 0,0.1 -0.1,0.2 -0.2,0.2 0,0 0,0 0,0 -0.1,0.1 -0.1,0.2 -0.1,0.3 -0.1,-0.1 -0.1,-0.2 -0.1,-0.3 0,-0.1 -0.1,-0.1 -0.1,-0.2 v 0 c -0.1,0.1 -0.2,0.1 -0.3,0.1 -0.1,0 -0.1,0.1 -0.1,0.2 0,-0.2 0,-0.3 0.1,-0.4 0,-0.1 0,-0.2 0.1,-0.3 0,0 0,0 0,0 v 0 c -0.1,0 -0.2,0 -0.2,-0.1 -0.1,0 -0.2,0.1 -0.2,0.1 0,-0.1 0.1,-0.3 0.2,-0.3 0.1,-0.2 0.3,-0.2 0.4,-0.1 0.1,0.1 0.2,0.1 0.3,0.1 0.1,0 0.2,-0.1 0.3,-0.2 0,0 0,-0.1 0.1,-0.1 0,-0.1 0.1,-0.2 -0.1,-0.3 -0.2,-0.2 -0.4,-0.4 -0.4,-0.6 0,-0.3 0.1,-0.5 0.3,-0.7 h -0.1 c -0.2,0 -0.2,-0.1 -0.5,-0.1 -0.2,0 -0.3,0.1 -0.3,0.3 0,0 0,0 0,0 0,0.1 0,0.2 0.1,0.3 0,0.1 0.1,0.2 0.1,0.3 -0.1,-0.1 -0.3,-0.1 -0.5,0 0,0.1 -0.1,0.2 -0.2,0.3 0,-0.2 -0.2,-0.3 -0.4,-0.2 -0.1,0 -0.1,0 -0.1,0.1 0,0.1 -0.1,0.2 -0.2,0.2 0,0 0,0 0,0 0,0 -0.1,0 -0.1,0 -0.1,0 -0.1,0.1 -0.2,0.2 0,-0.1 0,-0.2 0,-0.3 0,-0.1 0,-0.2 0.1,-0.2 0.1,0 0,0 0,0 C 33.3,57 33.1,57 33,57 c -0.1,0 -0.1,0.1 -0.2,0.2 -0.1,-0.2 0,-0.3 0.2,-0.5 0,-0.1 0.1,-0.2 0.3,-0.2 0.1,0 0,0 0,0 v 0 c 0,0 -0.2,0 -0.2,-0.2 -0.1,0 -0.2,0 -0.2,0.1 0,-0.1 0.1,-0.2 0.3,-0.2 0,-0.1 0.2,-0.1 0.2,-0.1 0.1,0 0.2,0 0.2,0.1 0.1,0.2 0.3,0.3 0.5,0.2 0.1,0 0.2,-0.1 0.2,-0.2 v 0 c 0,-0.1 -0.2,-0.5 -0.2,-0.7 0.1,-0.3 0.3,-0.5 0.5,-0.5 0.6,0 0.8,0.3 0.9,0.3 0.2,0 0.2,0 0.3,-0.1 -0.3,-0.4 -0.5,-0.4 -0.8,-0.6 -0.1,-0.1 -0.2,-0.3 -0.2,-0.4 -0.2,0 -0.3,0.3 -0.4,0.4 0,-0.1 -0.1,-0.1 -0.2,-0.1 -0.1,0 -0.2,0.2 -0.3,0.3 0,-0.2 -0.1,-0.3 -0.3,-0.3 -0.2,0 -0.2,0 -0.3,0.1 -0.1,0.1 -0.2,0.2 -0.3,0.1 -0.1,0.1 -0.2,0.1 -0.2,0.2 -0.1,-0.2 0,-0.3 0,-0.3 0,-0.1 0,-0.2 0.1,-0.2 v 0 c -0.1,0 -0.2,0 -0.3,-0.1 -0.1,-0.1 -0.1,0 -0.2,0.1 0,-0.1 0.1,-0.2 0.2,-0.3 C 32.7,54 32.8,54 32.9,54 v 0 c -0.1,0 -0.1,-0.1 -0.1,-0.2 -0.1,-0.1 -0.2,0 -0.2,0 0.1,-0.1 0.3,-0.2 0.4,-0.1 0.1,0.1 0.3,0 0.3,0.1 0,0.1 0.2,0.2 0.5,0.2 0.5,0 1.3,-0.4 1.2,-0.8 h -0.2 c -0.3,0 -0.6,0.3 -0.8,0.3 0.1,-0.1 0,-0.3 0.1,-0.4 -0.2,0 -0.4,0.1 -0.5,0.1 0.1,-0.1 0.1,-0.2 0.2,-0.3 0,-0.1 0,-0.2 -0.3,-0.2 -0.1,0 -0.1,0 -0.2,0 -0.1,0 -0.3,0 -0.3,-0.2 -0.1,0 -0.2,0 -0.3,0.1 0,-0.1 0.2,-0.2 0.3,-0.2 -0.1,-0.1 -0.1,-0.2 0,-0.3 0.1,-0.1 0.2,-0.1 0.3,0 v 0 c 0,0 0,0 0,-0.1 0,-0.1 -0.2,0 -0.2,-0.2 0,-0.2 -0.1,-0.1 -0.3,0 0.2,-0.2 0.3,-0.1 0.3,-0.1 0.1,0 0.3,0 0.3,0 0,0 0,0 0,0 0,-0.1 0,-0.2 0,-0.3 0,-0.2 0,-0.2 -0.1,-0.2 0.1,0 0.3,0 0.4,0.1 0.1,0 0.2,0.1 0.2,0.2 0,0.2 -0.2,0.3 0.2,0.6 0.2,0.1 0.3,0.1 0.5,0.2 0.2,0.1 0.3,0.1 0.5,0.1 -0.1,-0.1 0,-0.2 -0.2,-0.3 0.1,0 0.3,0 0.4,0.1 0,-0.2 0,-0.2 -0.1,-0.3 h 0.3 c 0.5,0 0.5,-0.2 0.6,-0.5 -0.2,0 -0.5,0.1 -0.7,0.2 0,-0.1 0,-0.2 0,-0.2 0,-0.1 0.1,-0.2 0.1,-0.2 0,0 0,0 0,0 h 0.1 c 0.1,0 0.2,-0.1 0.2,-0.3 -0.1,-0.2 -0.1,-0.2 -0.2,-0.2 l -0.2,0.1 c -0.1,0 -0.1,0.1 -0.1,0.2 0,0 0,-0.2 0,-0.2 0,0 0,-0.1 -0.1,-0.1 v 0 c 0,-0.1 0,-0.2 0.1,-0.2 0,0 0,0 0,0 l 0.3,-0.1 c 0.1,0 0.2,-0.1 0.2,-0.2 0,-0.1 0.1,-0.1 0.2,-0.1 h 0.3 c 0.2,0 0.5,-0.2 0.4,-0.4 0.2,0 0.2,0.3 0.2,0.4 0.1,0 0.3,0 0.4,-0.1 0,0.2 -0.1,0.3 -0.2,0.4 0.1,0 0.3,-0.1 0.4,-0.1 0,0.2 -0.1,0.3 -0.3,0.5 0.2,0.1 0.4,0.2 0.5,0.5 -0.2,-0.1 -0.3,0 -0.4,0 0.2,0.3 0.4,0.6 0.5,1 -0.1,-0.1 -0.2,-0.1 -0.4,-0.2 0.1,0.3 0,0.6 0,0.7 -0.1,0 -0.2,-0.1 -0.2,-0.2 -0.1,0.2 -0.1,0.4 -0.1,0.6 -0.1,-0.1 -0.2,-0.1 -0.2,-0.2 -0.1,0.2 -0.2,0.4 -0.2,0.7 0,0.5 0.1,0.9 0.4,1.3 0.1,0.2 0.2,0.5 0.2,0.7 0,0.2 0.2,0.4 0.4,0.4 0.2,0 0.4,-0.2 0.4,-0.4 0,0 0,0 0,0 0,-0.4 -0.5,-0.7 -0.5,-1.3 0,-0.5 0.3,-0.7 0.4,-1 0,-0.3 -0.2,-0.1 -0.4,-0.2 0.2,0 0.4,-0.3 0.6,-0.3 0.2,0 0.2,0.1 0.2,0.2 0,0.1 0,0.2 -0.1,0.3 0.2,-0.1 0.3,-0.3 0.3,-0.6 0,-0.2 -0.3,-0.4 -0.2,-0.8 0,-0.1 0,0 0,-0.1 0.1,0.4 0.7,0.5 0.7,0.9 0,0.4 -0.7,0.3 -0.9,0.7 m -3.6,-2.8 c 0,0.2 0,0.5 0.2,0.5 0.2,0 0.5,-0.1 0.7,-0.2 v 0 c -0.3,0.2 -0.6,0.4 -1,0.4 -0.1,0 -0.3,-0.1 -0.3,-0.2 0,0 0,0 0,-0.1 0,-0.1 0.2,-0.2 0.4,-0.4 M 53,66.3 C 53,59.8 52.6,53.4 51.9,47 c -6.3,0 -12.6,0.6 -18.8,1.9 -1.5,0.3 -2.7,1.5 -2.9,3 -0.8,4.7 -1.2,9.5 -1.2,14.3 0,0.6 0,0.5 0,1.2 1.2,-1.2 12.4,-12 12.4,-12 L 53,66.9 v -0.6"
     id="path10"
     style="stroke-width:1.11111" /></g>&#10;</svg>
